<mxfile host="app.diagrams.net" modified="2021-04-23T17:03:35.452Z" agent="5.0 (Macintosh; Intel Mac OS X 10_15_6) AppleWebKit/605.1.15 (KHTML, like Gecko) Version/14.0.3 Safari/605.1.15" etag="_U2KyVfFtK9Qnz1OwaTI" version="14.6.6" type="github">
  <diagram id="NJsftbUSNJqmDKT8cpKj" name="Page-1">
    <mxGraphModel dx="1925" dy="1337" grid="0" gridSize="10" guides="1" tooltips="1" connect="1" arrows="1" fold="1" page="0" pageScale="1" pageWidth="850" pageHeight="1100" math="0" shadow="0">
      <root>
        <mxCell id="0" />
        <mxCell id="1" parent="0" />
        <mxCell id="7zRvIoOxNtExgGe54Ebk-1" value="" style="whiteSpace=wrap;html=1;aspect=fixed;" vertex="1" parent="1">
          <mxGeometry x="85" y="160" width="290" height="290" as="geometry" />
        </mxCell>
        <mxCell id="7zRvIoOxNtExgGe54Ebk-2" value="Login" style="rounded=0;whiteSpace=wrap;html=1;dashed=1;" vertex="1" parent="1">
          <mxGeometry x="150" y="210" width="160" height="30" as="geometry" />
        </mxCell>
        <mxCell id="7zRvIoOxNtExgGe54Ebk-3" value="Email" style="rounded=0;whiteSpace=wrap;html=1;dashed=1;" vertex="1" parent="1">
          <mxGeometry x="150" y="250" width="160" height="30" as="geometry" />
        </mxCell>
        <mxCell id="7zRvIoOxNtExgGe54Ebk-4" value="Senha" style="rounded=0;whiteSpace=wrap;html=1;dashed=1;" vertex="1" parent="1">
          <mxGeometry x="150" y="290" width="160" height="30" as="geometry" />
        </mxCell>
        <mxCell id="7zRvIoOxNtExgGe54Ebk-5" value="Confirmar Senha" style="rounded=0;whiteSpace=wrap;html=1;dashed=1;" vertex="1" parent="1">
          <mxGeometry x="150" y="330" width="160" height="30" as="geometry" />
        </mxCell>
        <mxCell id="7zRvIoOxNtExgGe54Ebk-6" value="Salvar" style="rounded=0;whiteSpace=wrap;html=1;" vertex="1" parent="1">
          <mxGeometry x="185" y="390" width="90" height="30" as="geometry" />
        </mxCell>
        <mxCell id="7zRvIoOxNtExgGe54Ebk-7" value="Incluir/Excluir de usuario" style="text;html=1;align=center;verticalAlign=middle;resizable=0;points=[];autosize=1;strokeColor=none;fontStyle=1" vertex="1" parent="1">
          <mxGeometry x="150" y="180" width="160" height="20" as="geometry" />
        </mxCell>
        <mxCell id="7zRvIoOxNtExgGe54Ebk-8" value="" style="whiteSpace=wrap;html=1;aspect=fixed;" vertex="1" parent="1">
          <mxGeometry x="400" y="160" width="290" height="290" as="geometry" />
        </mxCell>
        <mxCell id="7zRvIoOxNtExgGe54Ebk-9" value="Login" style="rounded=0;whiteSpace=wrap;html=1;dashed=1;" vertex="1" parent="1">
          <mxGeometry x="465" y="210" width="160" height="30" as="geometry" />
        </mxCell>
        <mxCell id="7zRvIoOxNtExgGe54Ebk-11" value="Senha" style="rounded=0;whiteSpace=wrap;html=1;dashed=1;" vertex="1" parent="1">
          <mxGeometry x="465" y="250" width="160" height="30" as="geometry" />
        </mxCell>
        <mxCell id="7zRvIoOxNtExgGe54Ebk-13" value="Logar" style="rounded=0;whiteSpace=wrap;html=1;" vertex="1" parent="1">
          <mxGeometry x="500" y="320" width="90" height="30" as="geometry" />
        </mxCell>
        <mxCell id="7zRvIoOxNtExgGe54Ebk-14" value="Login" style="text;html=1;align=center;verticalAlign=middle;resizable=0;points=[];autosize=1;strokeColor=none;fontStyle=1" vertex="1" parent="1">
          <mxGeometry x="520" y="180" width="50" height="20" as="geometry" />
        </mxCell>
        <mxCell id="7zRvIoOxNtExgGe54Ebk-16" style="edgeStyle=orthogonalEdgeStyle;rounded=0;orthogonalLoop=1;jettySize=auto;html=1;fontColor=#3021FF;entryX=0.5;entryY=1;entryDx=0;entryDy=0;" edge="1" parent="1" source="7zRvIoOxNtExgGe54Ebk-15" target="7zRvIoOxNtExgGe54Ebk-1">
          <mxGeometry relative="1" as="geometry">
            <mxPoint x="552.5" y="880" as="targetPoint" />
          </mxGeometry>
        </mxCell>
        <mxCell id="7zRvIoOxNtExgGe54Ebk-15" value="Não tem acesso clica aqui" style="text;html=1;strokeColor=none;fillColor=none;align=center;verticalAlign=middle;whiteSpace=wrap;rounded=0;fontStyle=4;fontColor=#3021FF;" vertex="1" parent="1">
          <mxGeometry x="465" y="360" width="175" height="20" as="geometry" />
        </mxCell>
        <mxCell id="7zRvIoOxNtExgGe54Ebk-17" value="Usuário" style="text;html=1;align=center;verticalAlign=middle;resizable=0;points=[];autosize=1;strokeColor=none;fontStyle=1;fontSize=18;" vertex="1" parent="1">
          <mxGeometry x="340" y="90" width="80" height="30" as="geometry" />
        </mxCell>
        <mxCell id="7zRvIoOxNtExgGe54Ebk-18" value="" style="whiteSpace=wrap;html=1;aspect=fixed;" vertex="1" parent="1">
          <mxGeometry x="209" y="600" width="290" height="290" as="geometry" />
        </mxCell>
        <mxCell id="7zRvIoOxNtExgGe54Ebk-19" value="Descricao" style="rounded=0;whiteSpace=wrap;html=1;dashed=1;" vertex="1" parent="1">
          <mxGeometry x="274" y="650" width="160" height="30" as="geometry" />
        </mxCell>
        <mxCell id="7zRvIoOxNtExgGe54Ebk-43" style="edgeStyle=orthogonalEdgeStyle;rounded=0;orthogonalLoop=1;jettySize=auto;html=1;entryX=-0.019;entryY=0.467;entryDx=0;entryDy=0;entryPerimeter=0;fontSize=18;fontColor=#3021FF;endArrow=ERmany;endFill=0;startArrow=none;startFill=0;" edge="1" parent="1" source="7zRvIoOxNtExgGe54Ebk-20" target="7zRvIoOxNtExgGe54Ebk-35">
          <mxGeometry relative="1" as="geometry" />
        </mxCell>
        <mxCell id="7zRvIoOxNtExgGe54Ebk-20" value="Fator Conversao" style="rounded=0;whiteSpace=wrap;html=1;dashed=1;" vertex="1" parent="1">
          <mxGeometry x="274" y="690" width="160" height="30" as="geometry" />
        </mxCell>
        <mxCell id="7zRvIoOxNtExgGe54Ebk-21" value="Qtd Estoque" style="rounded=0;whiteSpace=wrap;html=1;dashed=1;" vertex="1" parent="1">
          <mxGeometry x="274" y="730" width="160" height="30" as="geometry" />
        </mxCell>
        <mxCell id="7zRvIoOxNtExgGe54Ebk-22" value="Valor compra" style="rounded=0;whiteSpace=wrap;html=1;dashed=1;" vertex="1" parent="1">
          <mxGeometry x="274" y="770" width="160" height="30" as="geometry" />
        </mxCell>
        <mxCell id="7zRvIoOxNtExgGe54Ebk-23" value="Salvar" style="rounded=0;whiteSpace=wrap;html=1;" vertex="1" parent="1">
          <mxGeometry x="309" y="850" width="90" height="30" as="geometry" />
        </mxCell>
        <mxCell id="7zRvIoOxNtExgGe54Ebk-24" value="Incluir/Alterar produto" style="text;html=1;align=center;verticalAlign=middle;resizable=0;points=[];autosize=1;strokeColor=none;fontStyle=1" vertex="1" parent="1">
          <mxGeometry x="286" y="621" width="137" height="18" as="geometry" />
        </mxCell>
        <mxCell id="7zRvIoOxNtExgGe54Ebk-32" value="Produto" style="text;html=1;align=center;verticalAlign=middle;resizable=0;points=[];autosize=1;strokeColor=none;fontStyle=1;fontSize=18;" vertex="1" parent="1">
          <mxGeometry x="340" y="527" width="80" height="30" as="geometry" />
        </mxCell>
        <mxCell id="7zRvIoOxNtExgGe54Ebk-34" value="Valor venda" style="rounded=0;whiteSpace=wrap;html=1;dashed=1;" vertex="1" parent="1">
          <mxGeometry x="274" y="810" width="160" height="30" as="geometry" />
        </mxCell>
        <mxCell id="7zRvIoOxNtExgGe54Ebk-35" value="" style="whiteSpace=wrap;html=1;aspect=fixed;" vertex="1" parent="1">
          <mxGeometry x="554" y="600" width="210" height="210" as="geometry" />
        </mxCell>
        <mxCell id="7zRvIoOxNtExgGe54Ebk-36" value="Descricao" style="rounded=0;whiteSpace=wrap;html=1;dashed=1;" vertex="1" parent="1">
          <mxGeometry x="579" y="650" width="160" height="30" as="geometry" />
        </mxCell>
        <mxCell id="7zRvIoOxNtExgGe54Ebk-37" value="Fator de multiplicacao" style="rounded=0;whiteSpace=wrap;html=1;dashed=1;" vertex="1" parent="1">
          <mxGeometry x="579" y="690" width="160" height="30" as="geometry" />
        </mxCell>
        <mxCell id="7zRvIoOxNtExgGe54Ebk-40" value="Salvar" style="rounded=0;whiteSpace=wrap;html=1;" vertex="1" parent="1">
          <mxGeometry x="614" y="740" width="90" height="30" as="geometry" />
        </mxCell>
        <mxCell id="7zRvIoOxNtExgGe54Ebk-41" value="Fator conversão" style="text;html=1;align=center;verticalAlign=middle;resizable=0;points=[];autosize=1;strokeColor=none;fontStyle=1" vertex="1" parent="1">
          <mxGeometry x="604" y="620" width="110" height="20" as="geometry" />
        </mxCell>
        <mxCell id="7zRvIoOxNtExgGe54Ebk-44" value="" style="whiteSpace=wrap;html=1;aspect=fixed;" vertex="1" parent="1">
          <mxGeometry x="411" y="1047" width="212" height="212" as="geometry" />
        </mxCell>
        <mxCell id="7zRvIoOxNtExgGe54Ebk-45" value="Produto" style="rounded=0;whiteSpace=wrap;html=1;dashed=1;" vertex="1" parent="1">
          <mxGeometry x="439" y="1090" width="160" height="30" as="geometry" />
        </mxCell>
        <mxCell id="7zRvIoOxNtExgGe54Ebk-47" value="Fator Conversao" style="rounded=0;whiteSpace=wrap;html=1;dashed=1;" vertex="1" parent="1">
          <mxGeometry x="439" y="1130" width="160" height="30" as="geometry" />
        </mxCell>
        <mxCell id="7zRvIoOxNtExgGe54Ebk-48" value="Quantidade" style="rounded=0;whiteSpace=wrap;html=1;dashed=1;" vertex="1" parent="1">
          <mxGeometry x="439" y="1170" width="160" height="30" as="geometry" />
        </mxCell>
        <mxCell id="7zRvIoOxNtExgGe54Ebk-50" value="Salvar" style="rounded=0;whiteSpace=wrap;html=1;" vertex="1" parent="1">
          <mxGeometry x="476" y="1214" width="90" height="30" as="geometry" />
        </mxCell>
        <mxCell id="7zRvIoOxNtExgGe54Ebk-51" value="Entrada" style="text;html=1;align=center;verticalAlign=middle;resizable=0;points=[];autosize=1;strokeColor=none;fontStyle=1" vertex="1" parent="1">
          <mxGeometry x="492" y="1061" width="55" height="18" as="geometry" />
        </mxCell>
        <mxCell id="7zRvIoOxNtExgGe54Ebk-52" value="Entrada de Produtos" style="text;html=1;align=center;verticalAlign=middle;resizable=0;points=[];autosize=1;strokeColor=none;fontStyle=1;fontSize=18;" vertex="1" parent="1">
          <mxGeometry x="280" y="988" width="187" height="26" as="geometry" />
        </mxCell>
        <mxCell id="7zRvIoOxNtExgGe54Ebk-59" value="" style="strokeWidth=2;html=1;shape=mxgraph.flowchart.merge_or_storage;whiteSpace=wrap;fontSize=18;fontColor=#3021FF;" vertex="1" parent="1">
          <mxGeometry x="569" y="1100.25" width="18" height="9.5" as="geometry" />
        </mxCell>
        <mxCell id="7zRvIoOxNtExgGe54Ebk-60" value="" style="strokeWidth=2;html=1;shape=mxgraph.flowchart.merge_or_storage;whiteSpace=wrap;fontSize=18;fontColor=#3021FF;" vertex="1" parent="1">
          <mxGeometry x="569" y="1144" width="18" height="9.5" as="geometry" />
        </mxCell>
        <mxCell id="7zRvIoOxNtExgGe54Ebk-61" value="" style="whiteSpace=wrap;html=1;aspect=fixed;" vertex="1" parent="1">
          <mxGeometry x="415" y="1412" width="212" height="212" as="geometry" />
        </mxCell>
        <mxCell id="7zRvIoOxNtExgGe54Ebk-62" value="Produto" style="rounded=0;whiteSpace=wrap;html=1;dashed=1;" vertex="1" parent="1">
          <mxGeometry x="443" y="1455" width="160" height="30" as="geometry" />
        </mxCell>
        <mxCell id="7zRvIoOxNtExgGe54Ebk-63" value="Fator Conversao" style="rounded=0;whiteSpace=wrap;html=1;dashed=1;" vertex="1" parent="1">
          <mxGeometry x="443" y="1495" width="160" height="30" as="geometry" />
        </mxCell>
        <mxCell id="7zRvIoOxNtExgGe54Ebk-64" value="Quantidade" style="rounded=0;whiteSpace=wrap;html=1;dashed=1;" vertex="1" parent="1">
          <mxGeometry x="443" y="1535" width="160" height="30" as="geometry" />
        </mxCell>
        <mxCell id="7zRvIoOxNtExgGe54Ebk-65" value="Salvar" style="rounded=0;whiteSpace=wrap;html=1;" vertex="1" parent="1">
          <mxGeometry x="480" y="1579" width="90" height="30" as="geometry" />
        </mxCell>
        <mxCell id="7zRvIoOxNtExgGe54Ebk-66" value="Saida" style="text;html=1;align=center;verticalAlign=middle;resizable=0;points=[];autosize=1;strokeColor=none;fontStyle=1" vertex="1" parent="1">
          <mxGeometry x="503" y="1426" width="42" height="18" as="geometry" />
        </mxCell>
        <mxCell id="7zRvIoOxNtExgGe54Ebk-67" value="Saida de Produtos" style="text;html=1;align=center;verticalAlign=middle;resizable=0;points=[];autosize=1;strokeColor=none;fontStyle=1;fontSize=18;" vertex="1" parent="1">
          <mxGeometry x="293" y="1359" width="168" height="26" as="geometry" />
        </mxCell>
        <mxCell id="7zRvIoOxNtExgGe54Ebk-68" value="" style="strokeWidth=2;html=1;shape=mxgraph.flowchart.merge_or_storage;whiteSpace=wrap;fontSize=18;fontColor=#3021FF;" vertex="1" parent="1">
          <mxGeometry x="573" y="1465.25" width="18" height="9.5" as="geometry" />
        </mxCell>
        <mxCell id="7zRvIoOxNtExgGe54Ebk-69" value="" style="strokeWidth=2;html=1;shape=mxgraph.flowchart.merge_or_storage;whiteSpace=wrap;fontSize=18;fontColor=#3021FF;" vertex="1" parent="1">
          <mxGeometry x="573" y="1509" width="18" height="9.5" as="geometry" />
        </mxCell>
        <mxCell id="7zRvIoOxNtExgGe54Ebk-70" value="" style="whiteSpace=wrap;html=1;aspect=fixed;" vertex="1" parent="1">
          <mxGeometry x="-122" y="600" width="290" height="290" as="geometry" />
        </mxCell>
        <mxCell id="7zRvIoOxNtExgGe54Ebk-76" value="Selecionar produtos" style="text;html=1;align=center;verticalAlign=middle;resizable=0;points=[];autosize=1;strokeColor=none;fontStyle=1" vertex="1" parent="1">
          <mxGeometry x="-39" y="621" width="126" height="18" as="geometry" />
        </mxCell>
        <mxCell id="7zRvIoOxNtExgGe54Ebk-78" value="" style="shape=table;html=1;whiteSpace=wrap;startSize=0;container=1;collapsible=0;childLayout=tableLayout;fontSize=18;fontColor=#3021FF;columnLines=0;" vertex="1" parent="1">
          <mxGeometry x="-74" y="682" width="180" height="120" as="geometry" />
        </mxCell>
        <mxCell id="7zRvIoOxNtExgGe54Ebk-79" value="" style="shape=partialRectangle;html=1;whiteSpace=wrap;collapsible=0;dropTarget=0;pointerEvents=0;fillColor=none;top=0;left=0;bottom=0;right=0;points=[[0,0.5],[1,0.5]];portConstraint=eastwest;" vertex="1" parent="7zRvIoOxNtExgGe54Ebk-78">
          <mxGeometry width="180" height="40" as="geometry" />
        </mxCell>
        <mxCell id="7zRvIoOxNtExgGe54Ebk-80" value="" style="shape=partialRectangle;html=1;whiteSpace=wrap;connectable=0;fillColor=none;top=0;left=0;bottom=0;right=0;overflow=hidden;" vertex="1" parent="7zRvIoOxNtExgGe54Ebk-79">
          <mxGeometry width="60" height="40" as="geometry" />
        </mxCell>
        <mxCell id="7zRvIoOxNtExgGe54Ebk-81" value="Produto 1" style="shape=partialRectangle;html=1;whiteSpace=wrap;connectable=0;fillColor=none;top=0;left=0;bottom=0;right=0;overflow=hidden;" vertex="1" parent="7zRvIoOxNtExgGe54Ebk-79">
          <mxGeometry x="60" width="60" height="40" as="geometry" />
        </mxCell>
        <mxCell id="7zRvIoOxNtExgGe54Ebk-82" value="" style="shape=partialRectangle;html=1;whiteSpace=wrap;connectable=0;fillColor=none;top=0;left=0;bottom=0;right=0;overflow=hidden;" vertex="1" parent="7zRvIoOxNtExgGe54Ebk-79">
          <mxGeometry x="120" width="60" height="40" as="geometry" />
        </mxCell>
        <mxCell id="7zRvIoOxNtExgGe54Ebk-83" value="" style="shape=partialRectangle;html=1;whiteSpace=wrap;collapsible=0;dropTarget=0;pointerEvents=0;fillColor=none;top=0;left=0;bottom=0;right=0;points=[[0,0.5],[1,0.5]];portConstraint=eastwest;" vertex="1" parent="7zRvIoOxNtExgGe54Ebk-78">
          <mxGeometry y="40" width="180" height="40" as="geometry" />
        </mxCell>
        <mxCell id="7zRvIoOxNtExgGe54Ebk-84" value="" style="shape=partialRectangle;html=1;whiteSpace=wrap;connectable=0;fillColor=none;top=0;left=0;bottom=0;right=0;overflow=hidden;" vertex="1" parent="7zRvIoOxNtExgGe54Ebk-83">
          <mxGeometry width="60" height="40" as="geometry" />
        </mxCell>
        <mxCell id="7zRvIoOxNtExgGe54Ebk-85" value="Produto 2" style="shape=partialRectangle;html=1;whiteSpace=wrap;connectable=0;fillColor=none;top=0;left=0;bottom=0;right=0;overflow=hidden;" vertex="1" parent="7zRvIoOxNtExgGe54Ebk-83">
          <mxGeometry x="60" width="60" height="40" as="geometry" />
        </mxCell>
        <mxCell id="7zRvIoOxNtExgGe54Ebk-86" value="" style="shape=partialRectangle;html=1;whiteSpace=wrap;connectable=0;fillColor=none;top=0;left=0;bottom=0;right=0;overflow=hidden;" vertex="1" parent="7zRvIoOxNtExgGe54Ebk-83">
          <mxGeometry x="120" width="60" height="40" as="geometry" />
        </mxCell>
        <mxCell id="7zRvIoOxNtExgGe54Ebk-87" value="" style="shape=partialRectangle;html=1;whiteSpace=wrap;collapsible=0;dropTarget=0;pointerEvents=0;fillColor=none;top=0;left=0;bottom=0;right=0;points=[[0,0.5],[1,0.5]];portConstraint=eastwest;" vertex="1" parent="7zRvIoOxNtExgGe54Ebk-78">
          <mxGeometry y="80" width="180" height="40" as="geometry" />
        </mxCell>
        <mxCell id="7zRvIoOxNtExgGe54Ebk-88" value="" style="shape=partialRectangle;html=1;whiteSpace=wrap;connectable=0;fillColor=none;top=0;left=0;bottom=0;right=0;overflow=hidden;" vertex="1" parent="7zRvIoOxNtExgGe54Ebk-87">
          <mxGeometry width="60" height="40" as="geometry" />
        </mxCell>
        <mxCell id="7zRvIoOxNtExgGe54Ebk-89" value="Produto 3" style="shape=partialRectangle;html=1;whiteSpace=wrap;connectable=0;fillColor=none;top=0;left=0;bottom=0;right=0;overflow=hidden;" vertex="1" parent="7zRvIoOxNtExgGe54Ebk-87">
          <mxGeometry x="60" width="60" height="40" as="geometry" />
        </mxCell>
        <mxCell id="7zRvIoOxNtExgGe54Ebk-90" value="" style="shape=partialRectangle;html=1;whiteSpace=wrap;connectable=0;fillColor=none;top=0;left=0;bottom=0;right=0;overflow=hidden;" vertex="1" parent="7zRvIoOxNtExgGe54Ebk-87">
          <mxGeometry x="120" width="60" height="40" as="geometry" />
        </mxCell>
        <mxCell id="7zRvIoOxNtExgGe54Ebk-91" style="edgeStyle=orthogonalEdgeStyle;rounded=0;orthogonalLoop=1;jettySize=auto;html=1;fontSize=18;fontColor=#3021FF;startArrow=none;startFill=0;endArrow=classic;endFill=1;" edge="1" parent="1" source="7zRvIoOxNtExgGe54Ebk-79">
          <mxGeometry relative="1" as="geometry">
            <mxPoint x="207" y="702" as="targetPoint" />
          </mxGeometry>
        </mxCell>
        <mxCell id="7zRvIoOxNtExgGe54Ebk-92" value="" style="whiteSpace=wrap;html=1;aspect=fixed;" vertex="1" parent="1">
          <mxGeometry x="78" y="1047" width="245" height="245" as="geometry" />
        </mxCell>
        <mxCell id="7zRvIoOxNtExgGe54Ebk-93" value="Todas as entradas" style="text;html=1;align=center;verticalAlign=middle;resizable=0;points=[];autosize=1;strokeColor=none;fontStyle=1" vertex="1" parent="1">
          <mxGeometry x="149" y="1074" width="115" height="18" as="geometry" />
        </mxCell>
        <mxCell id="7zRvIoOxNtExgGe54Ebk-94" value="" style="shape=table;html=1;whiteSpace=wrap;startSize=0;container=1;collapsible=0;childLayout=tableLayout;fontSize=18;fontColor=#3021FF;columnLines=0;" vertex="1" parent="1">
          <mxGeometry x="118" y="1122" width="180" height="120" as="geometry" />
        </mxCell>
        <mxCell id="7zRvIoOxNtExgGe54Ebk-95" value="" style="shape=partialRectangle;html=1;whiteSpace=wrap;collapsible=0;dropTarget=0;pointerEvents=0;fillColor=none;top=0;left=0;bottom=0;right=0;points=[[0,0.5],[1,0.5]];portConstraint=eastwest;" vertex="1" parent="7zRvIoOxNtExgGe54Ebk-94">
          <mxGeometry width="180" height="40" as="geometry" />
        </mxCell>
        <mxCell id="7zRvIoOxNtExgGe54Ebk-96" value="" style="shape=partialRectangle;html=1;whiteSpace=wrap;connectable=0;fillColor=none;top=0;left=0;bottom=0;right=0;overflow=hidden;" vertex="1" parent="7zRvIoOxNtExgGe54Ebk-95">
          <mxGeometry width="60" height="40" as="geometry" />
        </mxCell>
        <mxCell id="7zRvIoOxNtExgGe54Ebk-97" value="Entrada 1" style="shape=partialRectangle;html=1;whiteSpace=wrap;connectable=0;fillColor=none;top=0;left=0;bottom=0;right=0;overflow=hidden;" vertex="1" parent="7zRvIoOxNtExgGe54Ebk-95">
          <mxGeometry x="60" width="60" height="40" as="geometry" />
        </mxCell>
        <mxCell id="7zRvIoOxNtExgGe54Ebk-98" value="" style="shape=partialRectangle;html=1;whiteSpace=wrap;connectable=0;fillColor=none;top=0;left=0;bottom=0;right=0;overflow=hidden;" vertex="1" parent="7zRvIoOxNtExgGe54Ebk-95">
          <mxGeometry x="120" width="60" height="40" as="geometry" />
        </mxCell>
        <mxCell id="7zRvIoOxNtExgGe54Ebk-99" value="" style="shape=partialRectangle;html=1;whiteSpace=wrap;collapsible=0;dropTarget=0;pointerEvents=0;fillColor=none;top=0;left=0;bottom=0;right=0;points=[[0,0.5],[1,0.5]];portConstraint=eastwest;" vertex="1" parent="7zRvIoOxNtExgGe54Ebk-94">
          <mxGeometry y="40" width="180" height="40" as="geometry" />
        </mxCell>
        <mxCell id="7zRvIoOxNtExgGe54Ebk-100" value="" style="shape=partialRectangle;html=1;whiteSpace=wrap;connectable=0;fillColor=none;top=0;left=0;bottom=0;right=0;overflow=hidden;" vertex="1" parent="7zRvIoOxNtExgGe54Ebk-99">
          <mxGeometry width="60" height="40" as="geometry" />
        </mxCell>
        <mxCell id="7zRvIoOxNtExgGe54Ebk-101" value="Entrada 2" style="shape=partialRectangle;html=1;whiteSpace=wrap;connectable=0;fillColor=none;top=0;left=0;bottom=0;right=0;overflow=hidden;" vertex="1" parent="7zRvIoOxNtExgGe54Ebk-99">
          <mxGeometry x="60" width="60" height="40" as="geometry" />
        </mxCell>
        <mxCell id="7zRvIoOxNtExgGe54Ebk-102" value="" style="shape=partialRectangle;html=1;whiteSpace=wrap;connectable=0;fillColor=none;top=0;left=0;bottom=0;right=0;overflow=hidden;" vertex="1" parent="7zRvIoOxNtExgGe54Ebk-99">
          <mxGeometry x="120" width="60" height="40" as="geometry" />
        </mxCell>
        <mxCell id="7zRvIoOxNtExgGe54Ebk-103" value="" style="shape=partialRectangle;html=1;whiteSpace=wrap;collapsible=0;dropTarget=0;pointerEvents=0;fillColor=none;top=0;left=0;bottom=0;right=0;points=[[0,0.5],[1,0.5]];portConstraint=eastwest;" vertex="1" parent="7zRvIoOxNtExgGe54Ebk-94">
          <mxGeometry y="80" width="180" height="40" as="geometry" />
        </mxCell>
        <mxCell id="7zRvIoOxNtExgGe54Ebk-104" value="" style="shape=partialRectangle;html=1;whiteSpace=wrap;connectable=0;fillColor=none;top=0;left=0;bottom=0;right=0;overflow=hidden;" vertex="1" parent="7zRvIoOxNtExgGe54Ebk-103">
          <mxGeometry width="60" height="40" as="geometry" />
        </mxCell>
        <mxCell id="7zRvIoOxNtExgGe54Ebk-105" value="Entrada 3" style="shape=partialRectangle;html=1;whiteSpace=wrap;connectable=0;fillColor=none;top=0;left=0;bottom=0;right=0;overflow=hidden;" vertex="1" parent="7zRvIoOxNtExgGe54Ebk-103">
          <mxGeometry x="60" width="60" height="40" as="geometry" />
        </mxCell>
        <mxCell id="7zRvIoOxNtExgGe54Ebk-106" value="" style="shape=partialRectangle;html=1;whiteSpace=wrap;connectable=0;fillColor=none;top=0;left=0;bottom=0;right=0;overflow=hidden;" vertex="1" parent="7zRvIoOxNtExgGe54Ebk-103">
          <mxGeometry x="120" width="60" height="40" as="geometry" />
        </mxCell>
        <mxCell id="7zRvIoOxNtExgGe54Ebk-107" value="" style="whiteSpace=wrap;html=1;aspect=fixed;" vertex="1" parent="1">
          <mxGeometry x="78" y="1412" width="245" height="245" as="geometry" />
        </mxCell>
        <mxCell id="7zRvIoOxNtExgGe54Ebk-108" value="Todas as saidas" style="text;html=1;align=center;verticalAlign=middle;resizable=0;points=[];autosize=1;strokeColor=none;fontStyle=1" vertex="1" parent="1">
          <mxGeometry x="156" y="1439" width="102" height="18" as="geometry" />
        </mxCell>
        <mxCell id="7zRvIoOxNtExgGe54Ebk-109" value="" style="shape=table;html=1;whiteSpace=wrap;startSize=0;container=1;collapsible=0;childLayout=tableLayout;fontSize=18;fontColor=#3021FF;columnLines=0;" vertex="1" parent="1">
          <mxGeometry x="118" y="1487" width="180" height="120" as="geometry" />
        </mxCell>
        <mxCell id="7zRvIoOxNtExgGe54Ebk-110" value="" style="shape=partialRectangle;html=1;whiteSpace=wrap;collapsible=0;dropTarget=0;pointerEvents=0;fillColor=none;top=0;left=0;bottom=0;right=0;points=[[0,0.5],[1,0.5]];portConstraint=eastwest;" vertex="1" parent="7zRvIoOxNtExgGe54Ebk-109">
          <mxGeometry width="180" height="40" as="geometry" />
        </mxCell>
        <mxCell id="7zRvIoOxNtExgGe54Ebk-111" value="" style="shape=partialRectangle;html=1;whiteSpace=wrap;connectable=0;fillColor=none;top=0;left=0;bottom=0;right=0;overflow=hidden;" vertex="1" parent="7zRvIoOxNtExgGe54Ebk-110">
          <mxGeometry width="60" height="40" as="geometry" />
        </mxCell>
        <mxCell id="7zRvIoOxNtExgGe54Ebk-112" value="Saida 1" style="shape=partialRectangle;html=1;whiteSpace=wrap;connectable=0;fillColor=none;top=0;left=0;bottom=0;right=0;overflow=hidden;" vertex="1" parent="7zRvIoOxNtExgGe54Ebk-110">
          <mxGeometry x="60" width="60" height="40" as="geometry" />
        </mxCell>
        <mxCell id="7zRvIoOxNtExgGe54Ebk-113" value="" style="shape=partialRectangle;html=1;whiteSpace=wrap;connectable=0;fillColor=none;top=0;left=0;bottom=0;right=0;overflow=hidden;" vertex="1" parent="7zRvIoOxNtExgGe54Ebk-110">
          <mxGeometry x="120" width="60" height="40" as="geometry" />
        </mxCell>
        <mxCell id="7zRvIoOxNtExgGe54Ebk-114" value="" style="shape=partialRectangle;html=1;whiteSpace=wrap;collapsible=0;dropTarget=0;pointerEvents=0;fillColor=none;top=0;left=0;bottom=0;right=0;points=[[0,0.5],[1,0.5]];portConstraint=eastwest;" vertex="1" parent="7zRvIoOxNtExgGe54Ebk-109">
          <mxGeometry y="40" width="180" height="40" as="geometry" />
        </mxCell>
        <mxCell id="7zRvIoOxNtExgGe54Ebk-115" value="" style="shape=partialRectangle;html=1;whiteSpace=wrap;connectable=0;fillColor=none;top=0;left=0;bottom=0;right=0;overflow=hidden;" vertex="1" parent="7zRvIoOxNtExgGe54Ebk-114">
          <mxGeometry width="60" height="40" as="geometry" />
        </mxCell>
        <mxCell id="7zRvIoOxNtExgGe54Ebk-116" value="Saida 2" style="shape=partialRectangle;html=1;whiteSpace=wrap;connectable=0;fillColor=none;top=0;left=0;bottom=0;right=0;overflow=hidden;" vertex="1" parent="7zRvIoOxNtExgGe54Ebk-114">
          <mxGeometry x="60" width="60" height="40" as="geometry" />
        </mxCell>
        <mxCell id="7zRvIoOxNtExgGe54Ebk-117" value="" style="shape=partialRectangle;html=1;whiteSpace=wrap;connectable=0;fillColor=none;top=0;left=0;bottom=0;right=0;overflow=hidden;" vertex="1" parent="7zRvIoOxNtExgGe54Ebk-114">
          <mxGeometry x="120" width="60" height="40" as="geometry" />
        </mxCell>
        <mxCell id="7zRvIoOxNtExgGe54Ebk-118" value="" style="shape=partialRectangle;html=1;whiteSpace=wrap;collapsible=0;dropTarget=0;pointerEvents=0;fillColor=none;top=0;left=0;bottom=0;right=0;points=[[0,0.5],[1,0.5]];portConstraint=eastwest;" vertex="1" parent="7zRvIoOxNtExgGe54Ebk-109">
          <mxGeometry y="80" width="180" height="40" as="geometry" />
        </mxCell>
        <mxCell id="7zRvIoOxNtExgGe54Ebk-119" value="" style="shape=partialRectangle;html=1;whiteSpace=wrap;connectable=0;fillColor=none;top=0;left=0;bottom=0;right=0;overflow=hidden;" vertex="1" parent="7zRvIoOxNtExgGe54Ebk-118">
          <mxGeometry width="60" height="40" as="geometry" />
        </mxCell>
        <mxCell id="7zRvIoOxNtExgGe54Ebk-120" value="Saida 3" style="shape=partialRectangle;html=1;whiteSpace=wrap;connectable=0;fillColor=none;top=0;left=0;bottom=0;right=0;overflow=hidden;" vertex="1" parent="7zRvIoOxNtExgGe54Ebk-118">
          <mxGeometry x="60" width="60" height="40" as="geometry" />
        </mxCell>
        <mxCell id="7zRvIoOxNtExgGe54Ebk-121" value="" style="shape=partialRectangle;html=1;whiteSpace=wrap;connectable=0;fillColor=none;top=0;left=0;bottom=0;right=0;overflow=hidden;" vertex="1" parent="7zRvIoOxNtExgGe54Ebk-118">
          <mxGeometry x="120" width="60" height="40" as="geometry" />
        </mxCell>
      </root>
    </mxGraphModel>
  </diagram>
</mxfile>
